<?xml version="1.0" standalone="no"?>
<!DOCTYPE svg PUBLIC "-//W3C//DTD SVG 20010904//EN"
 "http://www.w3.org/TR/2001/REC-SVG-20010904/DTD/svg10.dtd">
<svg version="1.0" xmlns="http://www.w3.org/2000/svg"
 width="1280.000000pt" height="1263.000000pt" viewBox="0 0 1280.000000 1263.000000"
 preserveAspectRatio="xMidYMid meet">
<g transform="translate(0.000000,1263.000000) scale(0.100000,-0.100000)"
fill="#000000" stroke="none">
<path d="M6030 12610 c-275 -20 -408 -34 -580 -61 -1115 -173 -2061 -642
-2868 -1424 -435 -421 -769 -875 -1017 -1380 -298 -606 -456 -1222 -506 -1975
-14 -215 -6 -725 15 -931 160 -1559 869 -2940 2410 -4694 l167 -190 -3 -115
-3 -115 -1320 0 -1320 0 -173 540 c-96 297 -207 645 -248 773 l-75 232 -245 0
c-189 0 -244 -3 -244 -12 0 -7 218 -742 483 -1633 l484 -1620 2122 -3 c1870
-2 2122 0 2117 13 -3 8 -53 104 -111 212 -1066 1993 -1701 4001 -1874 5928
-40 445 -46 591 -46 1135 1 522 6 666 40 1035 54 586 157 1101 310 1555 140
415 360 831 591 1120 461 574 1088 897 1904 982 173 18 595 14 775 -6 908
-104 1580 -521 2055 -1276 80 -127 248 -462 305 -610 195 -499 327 -1097 389
-1766 34 -366 41 -528 41 -1049 0 -535 -5 -656 -46 -1110 -130 -1454 -533
-2993 -1177 -4495 -186 -435 -489 -1061 -711 -1470 -55 -102 -101 -188 -101
-192 0 -5 953 -8 2118 -8 l2117 0 207 693 c115 380 332 1104 483 1607 152 503
279 927 282 942 l6 28 -246 0 -246 0 -136 -418 c-75 -229 -189 -577 -253 -772
l-117 -355 -1315 0 -1315 0 -3 115 -3 116 153 174 c809 929 1402 1770 1783
2530 299 595 514 1268 605 1890 70 480 79 1041 24 1530 -134 1195 -638 2218
-1505 3054 -680 656 -1454 1090 -2334 1310 -386 96 -667 137 -1173 171 -271
18 -370 18 -672 -5z"/>
</g>
</svg>
